<?xml version="1.0" encoding="utf-8"?>
<!-- Generator: Adobe Illustrator 23.0.3, SVG Export Plug-In . SVG Version: 6.00 Build 0)  -->
<svg version="1.1" id="Layer_1" xmlns="http://www.w3.org/2000/svg" xmlns:xlink="http://www.w3.org/1999/xlink" x="0px" y="0px"
	 viewBox="0 0 488.6 488.6" style="enable-background:new 0 0 488.6 488.6;" xml:space="preserve">
<style type="text/css">
	.st0{fill:#3C87C1;}
	.st1{fill:#F57073;}
	.st2{fill:#3A7C78;}
	.st3{fill:#956BAB;}
	.st4{fill:#FAAF4A;}
	.st5{fill:#2E8D70;}
	.st6{fill:#493A5B;}
	.st7{fill:#404F76;}
	.st8{fill:#96649F;}
	.st9{fill:#F46F70;}
	.st10{fill:#1B6484;}
	.st11{fill:#FA0263;}
	.st12{fill:#333333;}
	.st13{fill:#4A3248;}
</style>
<g>
	<g>
		<path class="st7" d="M137,143.7c-3.2,1-9.4,3.9-13.4,10.4c-3.8,6.2-4.5,13.8-2.1,22.6c3.7,13.5,8.3,23.9,14,31.7
			c6.9,9.5,15.6,15.3,25.7,17.4c2.5,5.6,8,16.4,17.1,27.9c1.4,1.8,2.8,3.4,4.3,5.1v22.8l-30.7,17.9l-98.7,43.4c0,0-4.8,1-6.8,9.6
			s-10.9,53.7-11.9,80.1c0,0-2.3,14.8,10.3,13.5c12.5-1.3,56.3,3.5,138.6,21.2s146.7-1.9,175.9-9.6c29.3-7.7,64.6-10.9,77.5-11.3
			c12.9-0.3,21.2,1.6,20.6-10.3s-3.5-88.1-17.4-93.3c0,0-76.5-35.4-92.9-39.2c0,0-8.7-3.5-17.4-10.9c-7.1-6.1-16.5-10-19.5-11.2
			v-22.3c0-0.3,0-0.7-0.1-1c1.3-1.5,2.6-3,3.8-4.6c9.1-11.5,14.6-22.3,17.1-27.9c10.1-2.1,18.8-7.9,25.7-17.4
			c5.8-7.9,10.3-18.3,14-31.7c2.4-8.8,1.7-16.4-2.1-22.6c-5.2-8.6-14.3-10.8-15.3-11l-1.4,6.7l-1.5,6.7c0,0,4.5,1.1,6.7,4.8
			c1.7,2.8,1.8,6.8,0.5,11.8c-7,25.6-17.2,38.3-32,39.8l-4.2,0.4l-1.5,4c-0.2,0.5-20.6,53.8-71.8,61.5l-0.1,0
			c-1.6,0.3-3,0.1-3.3,0.1l-0.4-0.1c-51.2-7.6-71.6-61-71.8-61.5l-1.5-4l-4.2-0.4c-14.9-1.5-25.1-14.1-32-39.8
			c-1.4-5-1.2-8.9,0.5-11.8c1.6-2.7,4.4-4,5.8-4.6L137,143.7z M242.1,292.3c0.7,0.1,2.1,0.3,4,0.3c1.2,0,2.6-0.1,4-0.3
			c16.9-2.5,32.6-9.6,46.4-20.8v17.9c-4,30.2-40.2,43.4-49.3,46.3c-43.5-18-50.3-41.9-51-44.9v-18.9
			C209.9,282.8,225.4,289.8,242.1,292.3z M246.4,358.9c0,0-53.7-11.9-69.7-57.5l7.2-4.3c3.4,10.1,16,34.5,60.5,52.2l2.1,0.8l2.2-0.6
			c2.2-0.6,50.2-13.3,60.2-51.5l6.5,3.1C315.3,301.1,310.2,342.5,246.4,358.9z"/>
		<path class="st7" d="M285.4,19.9C209.9-4.4,142,40.4,133,92.9c-9,52.5,17.9,93.5,17.9,93.5h7.7c-6-15.8,7.7-50.4,7.7-50.4
			c90.9,4.3,148.1-41.4,148.1-41.4c3.4,20.9,21.8,68.3,21.8,68.3l0.9,25.2h4.7l9-28.6C369.9,113.4,360.9,44.3,285.4,19.9z
			 M162.5,117.2c0,0,81.5-8.5,99-24.1c17.5-15.6-74.7-1.5-74.7-1.5S263.3,54.5,313.4,75C313.4,75,263.6,121.1,162.5,117.2z"/>
	</g>
</g>
</svg>
